<svg id="Layer_1" data-name="Layer 1" xmlns="http://www.w3.org/2000/svg" viewBox="0 0 512 512" width="15px"
    height="15px">
    <title>arrow-up-glyph</title>
    <path
        d="M256,0C114.84,0,0,114.84,0,256S114.84,512,256,512,512,397.16,512,256,397.16,0,256,0Zm79.08,249.75a21.33,21.33,0,0,1-30.17,0l-27.58-27.58V384a21.33,21.33,0,0,1-42.67,0V222.17l-27.58,27.58a21.33,21.33,0,0,1-30.17-30.17l64-64a21.41,21.41,0,0,1,3.26-2.67c.54-.36,1.12-.6,1.67-.91a12.39,12.39,0,0,1,4.18-1.73c.6-.18,1.18-.41,1.8-.53a21.45,21.45,0,0,1,8.36,0c.62.12,1.19.36,1.79.53a21.12,21.12,0,0,1,2.19.68,20.87,20.87,0,0,1,2,1c.56.31,1.15.55,1.68.91a21.41,21.41,0,0,1,3.26,2.67l64,64A21.33,21.33,0,0,1,335.08,249.75Z"
        fill="red" />
</svg>