<?xml version="1.0" standalone="no"?>
<!DOCTYPE svg PUBLIC "-//W3C//DTD SVG 20010904//EN"
 "http://www.w3.org/TR/2001/REC-SVG-20010904/DTD/svg10.dtd">
<svg version="1.0" xmlns="http://www.w3.org/2000/svg"
 width="512.000000pt" height="512.000000pt" viewBox="0 0 512.000000 512.000000"
 preserveAspectRatio="xMidYMid meet">
<metadata>
Created by potrace 1.11, written by Peter Selinger 2001-2013
</metadata>
<g transform="translate(0.000000,512.000000) scale(0.100000,-0.100000)"
fill="#000000" stroke="none">
<path d="M1220 5107 c-480 -253 -893 -650 -1164 -1120 l-56 -98 0 -1351 0
-1351 47 -81 c64 -111 153 -245 232 -346 91 -118 110 -139 246 -275 173 -174
372 -328 575 -447 l65 -38 1405 0 1406 0 98 60 c338 206 634 482 863 806 66
93 90 131 155 242 l27 47 1 1385 0 1386 -63 102 c-271 443 -629 792 -1063
1036 l-99 56 -1325 0 c-1075 0 -1330 -3 -1350 -13z m1510 -482 c116 -6 163
-10 229 -20 408 -62 759 -195 1083 -410 69 -47 132 -90 140 -97 7 -7 40 -35
73 -63 387 -325 646 -777 702 -1225 16 -131 8 -557 -12 -630 -2 -8 -6 -26 -9
-40 -30 -173 -146 -446 -263 -625 -61 -92 -165 -226 -237 -304 -110 -118 -361
-319 -489 -390 -21 -12 -48 -28 -60 -35 -25 -16 -179 -96 -184 -96 -2 0 -3 11
-3 25 0 25 -1 25 -79 25 l-80 0 0 -56 c0 -31 -3 -60 -8 -64 -9 -8 -224 -77
-262 -85 -12 -2 -31 -7 -41 -10 -22 -7 -33 -9 -170 -34 -313 -57 -636 -60
-930 -10 -61 11 -66 14 -68 38 -1 14 -20 98 -41 186 -69 286 -47 366 129 478
75 48 130 110 130 147 0 19 -69 5 -171 -35 -51 -19 -97 -34 -103 -32 -7 2 -11
73 -13 213 0 115 -1 216 -2 225 -1 12 -17 15 -93 15 l-93 -1 -1 65 c-3 134 -3
133 -19 126 -10 -3 -15 1 -16 12 0 9 0 263 -1 565 0 408 -3 547 -11 548 -7 0
-48 1 -92 2 l-80 2 0 90 -1 90 -95 5 -95 5 0 227 c1 264 11 254 -119 124 -85
-86 -144 -177 -165 -253 -12 -47 -14 -107 -6 -227 6 -85 -4 -116 -51 -165 -43
-46 -85 -111 -104 -164 -15 -43 -17 -71 -13 -162 11 -222 12 -211 -19 -243
-15 -16 -40 -35 -55 -43 -57 -29 -144 -94 -178 -132 -72 -80 -110 -205 -101
-332 11 -146 66 -243 180 -318 107 -70 220 -102 352 -100 80 2 138 20 207 65
70 44 126 48 181 13 23 -16 57 -44 75 -62 l32 -34 0 -122 c0 -131 -22 -288
-46 -324 -16 -25 -52 -30 -85 -13 -33 18 -85 20 -105 6 -18 -14 -17 -16 21
-48 81 -68 133 -126 140 -157 8 -38 -2 -91 -20 -97 -15 -6 -182 72 -274 127
-34 22 -65 39 -67 39 -10 0 -195 133 -264 189 -88 72 -281 269 -346 356 -119
157 -214 323 -282 495 -29 73 -53 150 -50 160 1 3 -3 14 -9 25 -6 11 -14 36
-17 55 -3 19 -7 44 -10 55 -2 11 -7 47 -11 80 -4 32 -9 68 -11 80 -7 32 -7
366 -1 410 4 22 9 67 12 100 25 264 187 625 402 899 76 96 240 258 343 339 47
37 90 71 95 75 46 37 206 134 307 187 339 176 723 277 1108 292 80 3 147 7
148 9 2 1 9 1 15 -1 7 -2 64 -6 127 -10z"/>
<path d="M2921 4279 c-78 -77 -141 -146 -139 -153 2 -8 112 -125 244 -260
l242 -247 33 28 c18 15 42 37 53 47 19 19 20 18 72 -36 l54 -56 -22 -48 c-47
-107 -19 -245 67 -337 78 -82 215 -115 320 -76 28 11 55 19 62 19 14 0 103
-91 103 -105 0 -6 -18 -29 -40 -50 -22 -21 -40 -43 -40 -49 0 -5 107 -117 238
-248 130 -131 238 -243 240 -248 2 -5 10 -6 18 -3 18 7 294 274 294 284 0 9
-64 76 -302 316 -207 209 -196 203 -252 144 -17 -17 -36 -31 -44 -31 -15 0
-102 85 -102 100 0 4 7 27 16 51 25 70 28 129 9 193 -19 66 -14 113 15 133 31
22 24 45 -25 93 l-46 45 -35 -39 c-27 -30 -40 -37 -57 -31 -133 40 -177 42
-268 10 -47 -17 -51 -16 -115 44 l-47 45 47 43 c26 23 46 49 44 58 -3 16 -453
481 -479 495 -12 7 -48 -23 -158 -131z m296 -209 c76 -77 139 -146 141 -153 1
-7 -17 -31 -41 -55 l-43 -42 -145 145 c-79 80 -145 151 -147 158 -3 15 65 87
83 87 7 0 76 -63 152 -140z m613 -485 c38 -20 68 -59 81 -108 45 -168 -170
-282 -289 -154 -128 137 41 349 208 262z m678 -854 c-25 -32 -70 -71 -82 -71
-13 0 -296 286 -296 299 0 5 21 28 47 51 l46 43 149 -152 c130 -134 147 -155
136 -170z"/>
<path d="M1459 4155 c-4 -32 -3 -295 1 -296 3 -1 73 -2 156 -3 l151 -2 -1 156
-1 155 -152 0 c-99 1 -153 -3 -154 -10z"/>
<path d="M1839 4161 c-4 -25 0 -291 4 -298 4 -6 262 -10 300 -4 4 0 7 70 7
154 l0 153 -155 0 c-85 1 -155 -2 -156 -5z"/>
<path d="M1495 3800 l-60 -5 -1 -65 c0 -36 1 -70 3 -75 4 -12 138 -14 149 -2
4 3 7 37 7 74 0 78 -4 81 -98 73z"/>
<path d="M1657 3778 c-7 -4 -11 -60 -11 -156 l-1 -150 156 0 157 1 -2 155 -1
156 -143 0 c-79 1 -149 -2 -155 -6z"/>
<path d="M2040 3782 c-6 -2 -10 -64 -10 -158 l0 -153 155 1 155 1 -2 156 -3
155 -143 1 c-78 0 -147 -1 -152 -3z"/>
<path d="M1436 3538 c1 -40 2 -76 3 -79 2 -11 151 -5 152 6 0 5 1 40 2 78 l2
67 -80 0 -80 0 1 -72z"/>
<path d="M3065 3431 c-6 -10 2 -72 21 -164 43 -208 213 -397 430 -478 62 -23
79 -27 162 -35 49 -5 62 -4 63 7 4 57 4 112 -1 119 -3 6 -26 12 -50 15 -160
19 -291 98 -386 231 -43 60 -82 149 -90 204 -2 14 -5 39 -8 57 -2 17 -7 36
-10 42 -7 11 -123 13 -131 2z"/>
<path d="M3254 3432 c-6 -4 -10 -25 -9 -47 11 -167 137 -342 300 -414 49 -22
167 -46 187 -39 10 4 14 23 13 67 -1 68 -1 68 -35 74 -174 33 -281 132 -320
295 -6 28 -17 55 -24 59 -15 10 -99 14 -112 5z"/>
<path d="M1435 3342 l0 -77 78 -2 c85 -2 79 -8 79 72 0 93 7 85 -79 85 l-78 0
0 -78z"/>
<path d="M1630 3342 l0 -79 78 -1 77 -1 0 79 0 80 -77 0 -78 0 0 -78z"/>
<path d="M1820 3340 l0 -80 77 2 78 3 0 75 0 75 -77 3 -78 3 0 -81z"/>
<path d="M2158 3402 l-128 -3 0 -154 0 -155 155 0 155 0 0 154 0 154 -27 3
c-16 2 -85 3 -155 1z"/>
<path d="M2410 3245 l0 -156 157 3 158 3 0 150 0 150 -158 3 -157 3 0 -156z"/>
<path d="M1629 3209 c0 -10 -1 -39 -1 -64 0 -25 1 -52 1 -60 1 -20 146 -22
153 -2 2 6 4 41 3 77 l0 65 -78 2 c-70 2 -77 0 -78 -18z"/>
<path d="M1820 3150 l0 -81 78 3 77 3 1 78 0 77 -78 0 -78 0 0 -80z"/>
<path d="M1824 3031 c-2 -2 -4 -37 -4 -78 l0 -73 78 0 78 0 0 78 -1 77 -73 0
c-40 0 -75 -2 -78 -4z"/>
<path d="M2032 2862 l3 -156 150 0 150 -1 3 156 2 156 -155 0 -155 1 2 -156z"/>
<path d="M2412 2862 l3 -156 143 0 c79 -1 149 2 155 6 6 4 10 61 11 155 l1
148 -158 2 -157 1 2 -156z"/>
<path d="M1825 2841 c-3 -2 -5 -37 -5 -78 l0 -73 79 0 78 0 -1 77 -2 78 -72 0
c-40 1 -75 -1 -77 -4z"/>
<path d="M1824 2651 c-2 -2 -4 -37 -4 -78 0 -51 4 -73 13 -74 21 -1 101 -1
123 0 18 1 20 7 20 76 0 41 -2 76 -5 76 -18 4 -143 3 -147 0z"/>
<path d="M2032 2480 l3 -155 153 0 152 0 -2 155 -3 155 -153 0 -152 1 2 -156z"/>
<path d="M2413 2625 c-2 -6 -2 -76 -1 -155 l3 -145 153 -1 c83 0 152 2 153 5
7 42 2 294 -6 299 -18 11 -297 8 -302 -3z"/>
<path d="M1843 2462 c-22 -3 -23 -8 -23 -80 l0 -77 62 2 c35 1 70 2 79 2 13 1
16 13 14 74 -1 39 -3 74 -4 77 -1 6 -93 7 -128 2z"/>
<path d="M1822 2193 l3 -78 76 0 76 0 -1 77 0 78 -79 0 -78 0 3 -77z"/>
<path d="M2012 2193 l3 -77 76 -1 75 -1 2 78 1 78 -80 0 -80 0 3 -77z"/>
<path d="M2202 2192 l1 -78 71 2 c39 1 74 2 79 3 4 1 7 35 7 76 l0 75 -80 0
-79 0 1 -78z"/>
<path d="M2426 2252 c-14 -3 -16 -23 -16 -158 l0 -155 157 3 158 3 0 152 0
152 -141 3 c-78 2 -149 2 -158 0z"/>
<path d="M2840 2250 l-45 -5 0 -150 0 -150 155 0 155 0 1 153 0 152 -45 1
c-25 0 -75 1 -111 2 -36 1 -85 0 -110 -3z"/>
<path d="M1820 2002 l0 -78 78 -1 77 -1 0 76 0 77 -77 3 -78 3 0 -79z"/>
<path d="M2014 2067 c-3 -8 -4 -43 -2 -78 l3 -64 77 -1 76 -1 -1 76 -2 76 -73
3 c-55 2 -74 -1 -78 -11z"/>
<path d="M2202 2004 c1 -85 1 -85 98 -81 l55 2 2 77 2 76 -79 0 -79 0 1 -74z"/>
<path d="M3560 1905 l0 -155 155 0 155 0 0 155 0 155 -155 0 -155 0 0 -155z"/>
<path d="M1820 1810 l0 -80 78 0 78 0 -1 78 0 77 -77 2 -78 3 0 -80z"/>
<path d="M2016 1882 c-4 -3 -6 -39 -6 -79 l0 -74 78 3 77 3 3 77 2 76 -74 0
c-41 0 -77 -3 -80 -6z"/>
<path d="M2203 1812 l2 -77 78 -3 78 -3 -3 78 -3 78 -77 2 -76 1 1 -76z"/>
<path d="M2393 1809 l1 -79 78 0 78 0 0 79 0 78 -79 0 -78 1 0 -79z"/>
<path d="M2589 1882 c-4 -22 -5 -129 -1 -139 3 -9 28 -13 78 -13 l74 0 0 80 0
80 -75 -1 c-41 -1 -76 -4 -76 -7z"/>
<path d="M3358 1858 c-2 -13 -1 -44 0 -70 l4 -48 69 0 69 0 0 70 0 70 -69 0
c-65 0 -70 -2 -73 -22z"/>
<path d="M2016 1692 c-3 -3 -6 -38 -6 -79 l0 -73 80 0 81 0 -3 77 -3 77 -72 2
c-39 1 -74 0 -77 -4z"/>
<path d="M2206 1691 c-2 -3 -3 -39 -3 -78 l0 -73 78 0 79 0 0 78 0 77 -75 1
c-42 1 -77 -2 -79 -5z"/>
<path d="M2399 1696 c-1 -1 -3 -36 -4 -78 l-2 -78 79 0 78 0 0 78 0 77 -75 1
c-41 0 -76 0 -76 0z"/>
<path d="M2588 1681 c-2 -9 -4 -43 -3 -76 l0 -60 78 -3 78 -3 -3 78 -3 78 -72
0 c-57 1 -72 -2 -75 -14z"/>
<path d="M3169 1668 c-2 -36 1 -111 5 -117 4 -5 39 -6 118 -2 14 1 17 12 17
71 l0 70 -70 0 c-65 0 -69 -1 -70 -22z"/>
<path d="M3370 1524 c0 -147 1 -154 20 -155 11 0 72 0 135 0 63 0 124 0 135 0
19 1 20 8 20 156 l0 155 -155 -1 -155 -1 0 -154z"/>
<path d="M3750 1524 c0 -153 0 -154 23 -155 66 -3 280 1 284 5 4 4 6 165 4
278 l-1 28 -155 -1 -155 0 0 -155z"/>
<path d="M3169 1453 c-1 -27 -2 -55 -3 -63 -3 -28 12 -35 71 -33 32 0 61 2 64
2 3 1 6 31 5 69 l-1 67 -67 3 -68 2 -1 -47z"/>
<path d="M3160 1238 c0 -86 -5 -80 75 -80 88 0 81 -6 81 77 -1 43 -5 75 -11
76 -5 1 -40 2 -77 3 l-68 1 0 -77z"/>
<path d="M3550 1310 c-4 -3 -7 -39 -7 -80 l0 -75 78 0 79 0 0 80 0 80 -71 0
c-39 0 -74 -2 -79 -5z"/>
<path d="M3358 1275 c-1 -16 -1 -48 2 -70 l5 -40 50 1 c92 2 85 -3 85 72 l0
68 -69 0 -69 0 -4 -31z"/>
<path d="M3745 1301 c-3 -2 -5 -34 -5 -70 l0 -66 70 0 70 0 0 71 0 71 -65 -1
c-36 0 -68 -2 -70 -5z"/>
<path d="M3935 1302 c-8 -8 -6 -132 3 -133 4 -1 35 -2 70 -3 44 -1 62 2 63 11
1 7 2 39 2 71 l2 57 -68 1 c-37 0 -69 -2 -72 -4z"/>
<path d="M3162 1046 l3 -79 73 -1 c39 -1 72 1 73 4 6 34 3 142 -4 147 -5 3
-41 6 -79 7 l-69 1 3 -79z"/>
<path d="M3354 1121 c-9 -9 -3 -151 6 -152 6 -1 33 -1 60 -1 94 0 87 -7 86 77
0 41 -3 75 -6 76 -21 3 -143 3 -146 0z"/>
<path d="M3551 1120 c-4 -3 -8 -39 -8 -80 l0 -75 76 0 76 1 3 77 c2 57 0 77
-10 78 -57 4 -131 3 -137 -1z"/>
<path d="M3747 1120 c-14 -5 -19 -141 -6 -150 4 -3 38 -5 76 -4 l68 0 3 77 c2
42 -1 77 -5 78 -44 3 -126 3 -136 -1z"/>
<path d="M3940 1110 c-5 -3 -8 -35 -7 -70 l2 -65 68 0 c37 -1 67 3 68 7 1 4 1
31 1 58 0 28 0 56 -1 63 -1 9 -19 13 -61 13 -34 0 -65 -3 -70 -6z"/>
<path d="M3541 852 l0 -77 80 0 79 0 0 77 0 78 -80 0 -79 0 0 -78z"/>
</g>
</svg>
